<?xml version="1.0" encoding="iso-8859-1"?>
<!-- Generator: Adobe Illustrator 19.0.0, SVG Export Plug-In . SVG Version: 6.00 Build 0)  -->
<svg version="1.1" id="Capa_1" xmlns="http://www.w3.org/2000/svg" xmlns:xlink="http://www.w3.org/1999/xlink" x="0px" y="0px"
	 viewBox="0 0 381.28 381.28" style="enable-background:new 0 0 381.28 381.28;" xml:space="preserve">
<path style="fill:#CE7419;" d="M54.72,310.56h271.92c12.415,0,22.48,10.047,22.48,22.44l0,0c0,12.393-10.065,22.44-22.48,22.44
	H54.72c-12.415,0-22.48-10.047-22.48-22.44l0,0C32.24,320.607,42.305,310.56,54.72,310.56z"/>
<g>
	<path style="fill:#FCBA29;" d="M28.56,97.92c45.84,30.08,66.8,26,66.8,69.84c2.789,21.915,22.815,37.419,44.73,34.63
		c18.087-2.302,32.329-16.543,34.63-34.63c0-14.08-3.68-38.32-20.72-38.32c-20.24,0-36.72-9.84-36.72-22
		c0-20.72,36-24.48,52.32-19.92c-2.16-16,0.72-61.68,21.12-61.68S214,71.36,211.84,87.52c16-4.56,52.32-0.8,52.32,19.92
		c0,12.16-16.4,22-36.72,22c-17.04,0-20.72,24-20.72,38.32c2.789,21.915,22.815,37.419,44.729,34.631
		c18.087-2.302,32.329-16.543,34.631-34.631c0-43.76,20.96-40,66.8-69.84l-46.16,212.8h-232L28.56,97.92z"/>
	<path style="fill:#E99A23;" d="M190.64,25.92c20.4,0,23.28,45.52,21.12,61.68c16-4.56,52.32-0.8,52.32,19.92
		c0,12.16-16.4,22-36.72,22c-17.04,0-20.72,24-20.72,38.32c2.789,21.915,22.815,37.419,44.73,34.63
		c18.087-2.302,32.329-16.543,34.63-34.63c0-43.76,20.96-40,66.8-69.84l-46.08,212.72H190.64L190.64,25.92z"/>
</g>
<g>
	<circle style="fill:#FCBA29;" cx="18.48" cy="81.6" r="18.48"/>
	<circle style="fill:#FCBA29;" cx="362.8" cy="81.6" r="18.48"/>
</g>
<g>
	<path style="fill:#CE7419;" d="M190.64,218.32l12.96,17.28l13.04,17.28l-13.04,17.28l-12.96,17.28l-12.96-17.28l-13.04-17.28
		l13.04-17.28L190.64,218.32z"/>
	<path style="fill:#CE7419;" d="M274.08,233.68l9.28,12.32l9.28,12.4l-9.28,12.32l-9.28,12.32l-9.28-12.32l-9.28-12.32l9.28-12.4
		L274.08,233.68z"/>
	<path style="fill:#CE7419;" d="M107.2,233.68l9.28,12.32l9.28,12.4l-9.28,12.32l-9.28,12.32l-9.28-12.32l-9.28-12.32l9.28-12.4
		L107.2,233.68z"/>
</g>
<g>
</g>
<g>
</g>
<g>
</g>
<g>
</g>
<g>
</g>
<g>
</g>
<g>
</g>
<g>
</g>
<g>
</g>
<g>
</g>
<g>
</g>
<g>
</g>
<g>
</g>
<g>
</g>
<g>
</g>
</svg>
