<?xml version="1.0" encoding="iso-8859-1"?>
<!-- Generator: Adobe Illustrator 19.0.0, SVG Export Plug-In . SVG Version: 6.00 Build 0)  -->
<svg version="1.1" id="Capa_1" xmlns="http://www.w3.org/2000/svg" xmlns:xlink="http://www.w3.org/1999/xlink" x="0px" y="0px"
	 viewBox="0 0 381.28 381.28" style="enable-background:new 0 0 381.28 381.28;" xml:space="preserve">
<path style="fill:#CE7419;" d="M57.04,327.32h267.12c12.415,0,22.48,10.047,22.48,22.44l0,0c0,12.393-10.065,22.44-22.48,22.44
	H57.04c-12.415,0-22.48-10.047-22.48-22.44l0,0C34.56,337.367,44.625,327.32,57.04,327.32z"/>
<g>
	<path style="fill:#FCBA29;" d="M0,190.68c47.6,3.92,106.48-54.88,147.2,13.84l-18.24-91.28l60.64-60.08l62.72,60.08l-18.24,91.28
		c40.72-68.72,99.6-10,147.2-13.84c-42,72.8-76.72,72.48-78.8,136.64h-99.6V136.2l0.56-0.64l12.8-13.28L203.44,109l-12.8-13.28
		L177.84,109l-12.8,13.28l12.8,13.28l0.56,0.64v191.12H78.64C76.72,263.16,42,263.48,0,190.68L0,190.68z"/>
	<path style="fill:#E99A23;" d="M189.6,53.16l62.72,60.08l-18.24,91.28c40.72-68.72,99.6-10,147.2-13.84
		c-42,72.8-76.72,72.48-78.8,136.64h-99.6V136.2l0.56-0.64l12.8-13.28L203.44,109l-12.8-13.28l-1.04,1.04L189.6,53.16z"/>
</g>
<circle style="fill:#FCBA29;" cx="190.64" cy="31.08" r="22"/>
<g>
	<path style="fill:#CE7419;" d="M87.12,203.56l5.12,12.56l5.12,12.48l-12.24,5.6l-12.32,5.68l-5.12-12.56l-5.2-12.48l12.32-5.6
		L87.12,203.56z"/>
	<path style="fill:#CE7419;" d="M294.16,203.56l-5.12,12.56l-5.12,12.48l12.24,5.6l12.32,5.68l5.12-12.56l5.2-12.48l-12.32-5.6
		L294.16,203.56z"/>
	<path style="fill:#CE7419;" d="M190.64,95.72l-25.6,26.64l13.36,13.84v191.12h24.48V136.2l13.36-13.84L190.64,95.72z"/>
</g>
<g>
</g>
<g>
</g>
<g>
</g>
<g>
</g>
<g>
</g>
<g>
</g>
<g>
</g>
<g>
</g>
<g>
</g>
<g>
</g>
<g>
</g>
<g>
</g>
<g>
</g>
<g>
</g>
<g>
</g>
</svg>
